<?xml version="1.0" encoding="UTF-8" standalone="no"?>
<svg width="35px" height="36px" viewBox="0 0 35 36" version="1.1" xmlns="http://www.w3.org/2000/svg" xmlns:xlink="http://www.w3.org/1999/xlink">
    <!-- Generator: Sketch 3.8.3 (29802) - http://www.bohemiancoding.com/sketch -->
    <title>Group</title>
    <desc>Created with Sketch.</desc>
    <defs></defs>
    <g id="Symbols" stroke="none" stroke-width="1" fill="none" fill-rule="evenodd">
        <g id="Nav-Open-Close" transform="translate(0.000000, 1.000000)">
            <g id="Group" transform="translate(0.000000, -1.000000)">
                <circle id="Oval-12" fill="#FFFFFF" cx="17.5" cy="18" r="15.5"></circle>
                <g id="Page-1" transform="translate(19.500000, 18.000000) rotate(-270.000000) translate(-19.500000, -18.000000) translate(1.500000, -1.500000)" fill="#282825">
                    <polygon id="Fill-1" points="21 16.5 15.0015 16.5 15.0015 21.0015 12 21 18.0015 27.0015 24.0015 21.0015 21.0015 21"></polygon>
                    <path d="M18,30 C13.0365,30 9,25.9635 9,21 C9,16.0365 13.0365,12 18,12 C22.9635,12 27,16.0365 27,21 C27,25.9635 22.9635,30 18,30 M18,4.33333333 C8.42766667,4.33333333 0.666666667,12.0943333 0.666666667,21.6666667 C0.666666667,31.239 8.42766667,39 18,39 C27.5723333,39 35.3333333,31.239 35.3333333,21.6666667 C35.3333333,12.0943333 27.5723333,4.33333333 18,4.33333333 L9.33333333,0" id="Fill-2"></path>
                </g>
            </g>
        </g>
    </g>
</svg>