<?xml version="1.0" encoding="utf-8"?>
<!-- Generator: Adobe Illustrator 20.0.0, SVG Export Plug-In . SVG Version: 6.00 Build 0)  -->
<svg version="1.1" id="Layer_1" xmlns="http://www.w3.org/2000/svg" xmlns:xlink="http://www.w3.org/1999/xlink" x="0px" y="0px"
	 viewBox="0 0 12 27" style="enable-background:new 0 0 12 27;" xml:space="preserve">
<style type="text/css">
	.st0{fill:#9B9B9B;}
</style>
<title>Group 4</title>
<desc>Created with Sketch.</desc>
<path class="st0" d="M3.5,2.5h-3v24h11v-24h-3v-2h-5V2.5z M4.7,15.5c0-0.7,0.1-1.3,0.3-1.7c0.2-0.4,0.5-0.9,1-1.3
	c0.5-0.4,0.8-0.8,0.9-1s0.2-0.5,0.2-0.8c0-0.9-0.4-1.3-1.2-1.3C5.5,9.3,5.2,9.4,5,9.7c-0.2,0.2-0.4,0.6-0.4,1H2.4c0-1,0.3-1.8,1-2.3
	C4,7.8,4.8,7.5,5.9,7.5c1.1,0,2,0.3,2.6,0.8s0.9,1.3,0.9,2.3c0,0.4-0.1,0.9-0.3,1.3c-0.2,0.4-0.5,0.8-1,1.3l-0.6,0.6
	C7,14.1,6.8,14.5,6.8,15l0,0.5H4.7z M4.5,17.9c0-0.3,0.1-0.6,0.4-0.9c0.2-0.2,0.5-0.3,0.9-0.3c0.4,0,0.7,0.1,0.9,0.3
	C6.9,17.3,7,17.6,7,17.9c0,0.3-0.1,0.6-0.3,0.8c-0.2,0.2-0.5,0.3-0.9,0.3c-0.4,0-0.7-0.1-0.9-0.3C4.6,18.5,4.5,18.3,4.5,17.9z"/>
</svg>
