<?xml version="1.0" encoding="UTF-8" standalone="no"?>
<svg width="14px" height="14px" viewBox="0 0 14 14" version="1.1" xmlns="http://www.w3.org/2000/svg" xmlns:xlink="http://www.w3.org/1999/xlink">
    <!-- Generator: Sketch 3.8.3 (29802) - http://www.bohemiancoding.com/sketch -->
    <title>icon Beacons</title>
    <desc>Created with Sketch.</desc>
    <defs></defs>
    <g id="Symbols" stroke="none" stroke-width="1" fill="none" fill-rule="evenodd">
        <g id="ICON-Beacons-MAIN" transform="translate(1.000000, 1.000000)" fill="#0B9AD7">
            <g id="icon-Beacons" transform="translate(-1.000000, -1.000000)">
                <path d="M7,14 C10.8659932,14 14,10.8659932 14,7 C14,3.13400675 10.8659932,0 7,0 C3.13400675,0 0,3.13400675 0,7 C0,10.8659932 3.13400675,14 7,14 L7,14 Z M7,12 C4.23857625,12 2,9.76142375 2,7 C2,4.23857625 4.23857625,2 7,2 C9.76142375,2 12,4.23857625 12,7 C12,9.76142375 9.76142375,12 7,12 L7,12 Z" id="Oval-1"></path>
                <path d="M7,10 C8.65685425,10 10,8.65685425 10,7 C10,5.34314575 8.65685425,4 7,4 C5.34314575,4 4,5.34314575 4,7 C4,8.65685425 5.34314575,10 7,10 L7,10 Z M6,7 C6,6.44771525 6.44771525,6 7,6 C7.55228475,6 8,6.44771525 8,7 C8,7.55228475 7.55228475,8 7,8 C6.44771525,8 6,7.55228475 6,7 Z" id="Oval-1-Copy"></path>
            </g>
        </g>
    </g>
</svg>