<?xml version="1.0" encoding="UTF-8" standalone="no"?>
<svg width="15px" height="16px" viewBox="0 0 15 16" version="1.1" xmlns="http://www.w3.org/2000/svg" xmlns:xlink="http://www.w3.org/1999/xlink">
    <!-- Generator: Sketch 3.8.3 (29802) - http://www.bohemiancoding.com/sketch -->
    <title>Group</title>
    <desc>Created with Sketch.</desc>
    <defs></defs>
    <g id="Symbols" stroke="none" stroke-width="1" fill="none" fill-rule="evenodd">
        <g id="ICON-Events-Primary" fill="#979797">
            <g id="Group">
                <polygon id="Fill-1" points="5 8 7 8 7 6 5 6"></polygon>
                <polygon id="Fill-2" points="8 8 10 8 10 6 8 6"></polygon>
                <polygon id="Fill-3" points="11 8 13 8 13 6 11 6"></polygon>
                <polygon id="Fill-4" points="2 11 4 11 4 9 2 9"></polygon>
                <polygon id="Fill-5" points="5 11 7 11 7 9 5 9"></polygon>
                <polygon id="Fill-6" points="8 11 10 11 10 9 8 9"></polygon>
                <polygon id="Fill-7" points="11 11 13 11 13 9 11 9"></polygon>
                <polygon id="Fill-8" points="2 14 4 14 4 12 2 12"></polygon>
                <polygon id="Fill-9" points="5 14 7 14 7 12 5 12"></polygon>
                <polygon id="Fill-10" points="8 14 10 14 10 12 8 12"></polygon>
                <path d="M1,15 L14,15 L14,5 L1,5 L1,15 Z M3,3 L4,3 L4,1 L3,1 L3,3 Z M11,3 L12,3 L12,1 L11,1 L11,3 Z M13,2 L13,0.5 C13,0.225 12.776,0 12.5,0 L10.5,0 C10.224,0 10,0.225 10,0.5 L10,2 L5,2 L5,0.5 C5,0.225 4.776,0 4.5,0 L2.5,0 C2.224,0 2,0.225 2,0.5 L2,2 L0,2 L0,16 L15,16 L15,2 L13,2 Z" id="Fill-11"></path>
            </g>
        </g>
    </g>
</svg>