<?xml version="1.0" encoding="UTF-8" standalone="no"?>
<svg width="16px" height="16px" viewBox="0 0 16 16" version="1.1" xmlns="http://www.w3.org/2000/svg" xmlns:xlink="http://www.w3.org/1999/xlink">
    <!-- Generator: Sketch 3.8.3 (29802) - http://www.bohemiancoding.com/sketch -->
    <title>icon Help</title>
    <desc>Created with Sketch.</desc>
    <defs></defs>
    <g id="Symbols" stroke="none" stroke-width="1" fill="none" fill-rule="evenodd">
        <g id="ICON-Help" fill="#0B9AD7">
            <g id="icon-Help">
                <path d="M14,5 L13,5 L13,6 C13,7.542 11.543,9 10,9 L5.414,9 L4,10.414 L4,11 C4,12 5,13 6,13 L11,13 L14,16 L14,13 C15,13 16,12 16,11 L16,7 C16,6 15,5 14,5" id="Fill-1"></path>
                <path d="M5,8 L10,8 C11,8 12,7 12,6 L12,2 C12,1 11,0 10,0 L2,0 C1,0 0,1 0,2 L0,6 C0,7 1,8 2,8 L2,11 L5,8 Z" id="Fill-3"></path>
            </g>
        </g>
    </g>
</svg>