<?xml version="1.0" encoding="UTF-8" standalone="no"?>
<svg width="16px" height="16px" viewBox="0 0 16 16" version="1.1" xmlns="http://www.w3.org/2000/svg" xmlns:xlink="http://www.w3.org/1999/xlink">
    <!-- Generator: Sketch 3.8.3 (29802) - http://www.bohemiancoding.com/sketch -->
    <title>Page 1</title>
    <desc>Created with Sketch.</desc>
    <defs></defs>
    <g id="Symbols" stroke="none" stroke-width="1" fill="none" fill-rule="evenodd">
        <path d="M9,9 C7.896,9 7,8.102 7,7 C7,5.898 7.896,5 9,5 C10.103,5 11,5.898 11,7 C11,8.102 10.103,9 9,9 M14,9 C13.551,9 13.141,9.154 12.807,9.404 L11.611,8.449 C11.852,8.018 12,7.528 12,7 C12,6.352 11.791,5.757 11.441,5.266 L12.99,3.717 C13.287,3.893 13.631,4 14,4 C15.103,4 16,3.104 16,2 C16,0.896 15.103,0 14,0 C12.896,0 12,0.896 12,2 C12,2.37 12.107,2.713 12.283,3.01 L10.734,4.559 C10.244,4.21 9.648,4 9,4 C7.943,4 7.018,4.551 6.482,5.377 L3.971,4.301 C3.984,4.201 4,4.102 4,4 C4,2.896 3.103,2 2,2 C0.896,2 0,2.896 0,4 C0,5.104 0.896,6 2,6 C2.643,6 3.209,5.69 3.574,5.219 L6.092,6.297 C6.037,6.523 6,6.757 6,7 C6,7.648 6.211,8.243 6.559,8.734 L3.01,12.283 C2.713,12.107 2.371,12 2,12 C0.896,12 0,12.896 0,14 C0,15.104 0.896,16 2,16 C3.103,16 4,15.104 4,14 C4,13.63 3.893,13.287 3.717,12.99 L7.266,9.441 C7.627,9.697 8.045,9.873 8.5,9.949 L8.5,12.07 C7.639,12.293 7,13.068 7,14 C7,15.105 7.894,16 9,16 C10.105,16 11,15.105 11,14 C11,13.068 10.361,12.293 9.5,12.07 L9.5,9.949 C10.068,9.854 10.576,9.598 10.988,9.23 L12.178,10.184 C12.066,10.434 12,10.709 12,11 C12,12.104 12.896,13 14,13 C15.103,13 16,12.104 16,11 C16,9.896 15.103,9 14,9" id="Page-1" fill="#979797"></path>
    </g>
</svg>