<?xml version="1.0" encoding="UTF-8" standalone="no"?>
<svg width="22px" height="20px" viewBox="0 0 22 20" version="1.1" xmlns="http://www.w3.org/2000/svg" xmlns:xlink="http://www.w3.org/1999/xlink">
    <!-- Generator: Sketch 3.8.3 (29802) - http://www.bohemiancoding.com/sketch -->
    <title>Group</title>
    <desc>Created with Sketch.</desc>
    <defs>
        <polygon id="path-1" points="21.1857264 0 8.44417583 0 8.44417583 12.46325 21.1857264 12.46325 21.1857264 4.4408921e-15"></polygon>
    </defs>
    <g id="Symbols" stroke="none" stroke-width="1" fill="none" fill-rule="evenodd">
        <g id="Group-2" transform="translate(-21.000000, -21.000000)">
            <g id="Group" transform="translate(21.000000, 21.000000)">
                <path d="M18.6674725,8.75 L18.6674725,16.25 C18.6674725,16.93875 18.0962458,17.5 17.3895604,17.5 L4.61043957,17.5 C3.90631001,17.5 3.33252749,16.93875 3.33252749,16.25 L3.33252749,2.5 L12.2779121,2.5 L14.8337363,0 L3.33252749,0 C1.92171254,0 0.776703316,1.11875 0.776703316,2.5 L0.776703316,16.25 C0.776703316,18.32125 2.49421716,20 4.61043957,20 L17.3895604,20 C19.5083387,20 21.2232967,18.32125 21.2232967,16.25 L21.2232967,6.25 L18.6674725,8.75 Z" id="Fill-1" fill="#FFFFFF"></path>
                <polygon id="Fill-3" fill="#FFFFFF" points="5.88835166 15 11 13.75 9.08313187 11.875 7.16626374 10"></polygon>
                <mask id="mask-2" fill="white">
                    <use xlink:href="#path-1"></use>
                </mask>
                <g id="Clip-6"></g>
                <path d="M8.45281982,8.9275 L12.0545326,12.46375 L20.9123517,3.77 C21.0524466,3.635 21.1365035,3.45875 21.1492394,3.2775 C21.1632489,3.1 21.1046638,2.93375 20.9849463,2.81625 L18.3804546,0.2625 L18.2811145,0.165 C18.1690386,0.055 18.0174814,0 17.8608298,0 C17.6685177,0 17.4672905,0.08 17.3106389,0.235 L17.2838935,0.2625 L14.7341661,2.7625 L8.45281982,8.9275 Z" id="Fill-5" fill="#FFFFFF" mask="url(#mask-2)"></path>
            </g>
        </g>
    </g>
</svg>