<?xml version="1.0" encoding="UTF-8" standalone="no"?>
<svg width="13px" height="13px" viewBox="0 0 13 13" version="1.1" xmlns="http://www.w3.org/2000/svg" xmlns:xlink="http://www.w3.org/1999/xlink">
    <!-- Generator: Sketch 3.8.3 (29802) - http://www.bohemiancoding.com/sketch -->
    <title>icon Account</title>
    <desc>Created with Sketch.</desc>
    <defs></defs>
    <g id="Symbols" stroke="none" stroke-width="1" fill="none" fill-rule="evenodd">
        <g id="ICON-Account-1" fill="#0B9AD7">
            <g id="icon-Account">
                <path d="M6.5,8.9375 C5.156125,8.9375 4.0625,7.843875 4.0625,6.5 C4.0625,5.156125 5.156125,4.0625 6.5,4.0625 C7.843875,4.0625 8.9375,5.156125 8.9375,6.5 C8.9375,7.843875 7.843875,8.9375 6.5,8.9375 M11.375,6.5 C11.375,6.1888125 11.3425,5.88575 11.28725,5.59 L13,4.070625 L10.842,1.639625 L9.602125,2.73975 C9.1674375,2.380625 8.6669375,2.101125 8.125,1.909375 L8.125,0 L4.875,0 L4.875,1.909375 C4.3330625,2.101125 3.8325625,2.380625 3.397875,2.73975 L2.158,1.639625 L0,4.070625 L1.71275,5.59 C1.6575,5.88575 1.625,6.1888125 1.625,6.5 C1.625,6.812 1.6575,7.115875 1.71275,7.4108125 L0,8.931 L2.158,11.360375 L3.397875,10.2610625 C3.8325625,10.619375 4.3330625,10.9005 4.875,11.09225 L4.875,13 L8.125,13 L8.125,11.09225 C8.6669375,10.9005 9.1674375,10.619375 9.602125,10.2610625 L10.842,11.360375 L13,8.931 L11.28725,7.4108125 C11.3425,7.115875 11.375,6.812 11.375,6.5" id="Page-1"></path>
            </g>
        </g>
    </g>
</svg>