<?xml version="1.0" encoding="UTF-8" standalone="no"?>
<svg width="15px" height="15px" viewBox="0 0 15 15" version="1.1" xmlns="http://www.w3.org/2000/svg" xmlns:xlink="http://www.w3.org/1999/xlink">
    <!-- Generator: Sketch 3.8.3 (29802) - http://www.bohemiancoding.com/sketch -->
    <title>Group</title>
    <desc>Created with Sketch.</desc>
    <defs></defs>
    <g id="Symbols" stroke="none" stroke-width="1" fill="none" fill-rule="evenodd">
        <g id="ICON-Account-2" fill="#0B9AD7">
            <g id="Group">
                <path d="M7.293,9.581 C6.143,9.581 5.211,8.65 5.211,7.498 C5.211,6.348 6.143,5.417 7.293,5.417 C8.444,5.417 9.377,6.348 9.377,7.498 C9.377,8.65 8.444,9.581 7.293,9.581 M14.166,6.039 L12.076,6.039 C11.951,5.639 11.777,5.261 11.564,4.909 L12.949,3.52 C13.277,3.197 13.277,2.668 12.949,2.342 L12.361,1.755 C12.035,1.43 11.508,1.432 11.184,1.755 L9.773,3.162 C9.393,2.945 8.98,2.777 8.541,2.664 L8.541,0.834 C8.541,0.375 8.17,0 7.708,0 L6.875,0 C6.416,0 6.043,0.375 6.043,0.834 L6.043,2.664 C5.564,2.785 5.115,2.977 4.703,3.227 L3.523,2.048 C3.199,1.725 2.669,1.723 2.344,2.048 L1.754,2.637 C1.429,2.961 1.433,3.49 1.756,3.816 L2.957,5.018 C2.703,5.461 2.513,5.944 2.404,6.457 L0.836,6.457 C0.374,6.457 0,6.83 0,7.291 L0,8.123 C0,8.582 0.374,8.955 0.836,8.955 L2.51,8.955 C2.662,9.457 2.891,9.92 3.184,10.342 L2.051,11.475 C1.725,11.801 1.725,12.33 2.049,12.654 L2.637,13.243 C2.965,13.566 3.493,13.566 3.817,13.242 L5.084,11.977 C5.51,12.188 5.973,12.342 6.459,12.422 L6.459,14.164 C6.459,14.623 6.832,14.997 7.292,14.998 L8.125,14.998 C8.584,14.997 8.958,14.623 8.958,14.164 L8.958,12.207 C9.378,12.058 9.775,11.859 10.137,11.605 L11.477,12.949 C11.803,13.273 12.33,13.273 12.656,12.949 L13.245,12.359 C13.572,12.035 13.572,11.508 13.242,11.18 L11.773,9.708 C11.953,9.342 12.094,8.952 12.181,8.539 L14.166,8.539 C14.627,8.539 14.999,8.168 15,7.706 L15,6.873 C14.999,6.414 14.627,6.039 14.166,6.039" id="Page-1"></path>
            </g>
        </g>
    </g>
</svg>