<?xml version="1.0" encoding="UTF-8" standalone="no"?>
<svg width="15px" height="13px" viewBox="0 0 15 13" version="1.1" xmlns="http://www.w3.org/2000/svg" xmlns:xlink="http://www.w3.org/1999/xlink">
    <!-- Generator: Sketch 3.8.3 (29802) - http://www.bohemiancoding.com/sketch -->
    <title>Group 2</title>
    <desc>Created with Sketch.</desc>
    <defs></defs>
    <g id="Symbols" stroke="none" stroke-width="1" fill="none" fill-rule="evenodd">
        <g id="Group-2" transform="translate(-0.000000, 0.000000)" fill="#0B9AD7">
            <path d="M0,13 L15,13 L15,0 L0,0 L0,13 Z M2,11 L13,11 L13,2 L2,2 L2,11 Z" id="Fill-1"></path>
            <polygon id="Fill-2" points="3 10 4 10 4 6.999 3 6.999"></polygon>
            <polygon id="Fill-3" points="5 10 6 10 6 5.999 5 5.999"></polygon>
            <polygon id="Fill-4" points="7 10 8 10 8 6.999 7 6.999"></polygon>
            <polygon id="Fill-5" points="9 10 10 10 10 4 9 4"></polygon>
            <polygon id="Fill-6" points="11 10 12 10 12 6.999 11 6.999"></polygon>
        </g>
    </g>
</svg>