<?xml version="1.0" encoding="UTF-8" standalone="no"?>
<svg width="14px" height="14px" viewBox="0 0 14 14" version="1.1" xmlns="http://www.w3.org/2000/svg" xmlns:xlink="http://www.w3.org/1999/xlink">
    <!-- Generator: Sketch 3.8.3 (29802) - http://www.bohemiancoding.com/sketch -->
    <title>Group</title>
    <desc>Created with Sketch.</desc>
    <defs></defs>
    <g id="Symbols" stroke="none" stroke-width="1" fill="none" fill-rule="evenodd">
        <g id="ICON-Destinations" transform="translate(-1.000000, -1.000000)" fill="#0B9AD7">
            <g id="Group" transform="translate(1.000000, 1.000000)">
                <g id="Page-1">
                    <path d="M3.0625,0 L0.4375,0 C0.196875,0 0,0.196875 0,0.4375 L0,3.0625 C0,3.303125 0.196875,3.5 0.4375,3.5 L3.0625,3.5 C3.303125,3.5 3.5,3.303125 3.5,3.0625 L3.5,0.4375 C3.5,0.196875 3.303125,0 3.0625,0" id="Fill-1"></path>
                    <path d="M3.0625,5.25 L0.4375,5.25 C0.196875,5.25 0,5.446875 0,5.6875 L0,8.3125 C0,8.553125 0.196875,8.75 0.4375,8.75 L3.0625,8.75 C3.303125,8.75 3.5,8.553125 3.5,8.3125 L3.5,5.6875 C3.5,5.446875 3.303125,5.25 3.0625,5.25" id="Fill-3"></path>
                    <path d="M3.0625,10.5 L0.4375,10.5 C0.196875,10.5 0,10.696875 0,10.9375 L0,13.5625 C0,13.803125 0.196875,14 0.4375,14 L3.0625,14 C3.303125,14 3.5,13.803125 3.5,13.5625 L3.5,10.9375 C3.5,10.696875 3.303125,10.5 3.0625,10.5" id="Fill-5"></path>
                    <path d="M8.3125,0 L5.6875,0 C5.446875,0 5.25,0.196875 5.25,0.4375 L5.25,3.0625 C5.25,3.303125 5.446875,3.5 5.6875,3.5 L8.3125,3.5 C8.553125,3.5 8.75,3.303125 8.75,3.0625 L8.75,0.4375 C8.75,0.196875 8.553125,0 8.3125,0" id="Fill-7"></path>
                    <path d="M8.3125,5.25 L5.6875,5.25 C5.446875,5.25 5.25,5.446875 5.25,5.6875 L5.25,8.3125 C5.25,8.553125 5.446875,8.75 5.6875,8.75 L8.3125,8.75 C8.553125,8.75 8.75,8.553125 8.75,8.3125 L8.75,5.6875 C8.75,5.446875 8.553125,5.25 8.3125,5.25" id="Fill-9"></path>
                    <path d="M8.3125,10.5 L5.6875,10.5 C5.446875,10.5 5.25,10.696875 5.25,10.9375 L5.25,13.5625 C5.25,13.803125 5.446875,14 5.6875,14 L8.3125,14 C8.553125,14 8.75,13.803125 8.75,13.5625 L8.75,10.9375 C8.75,10.696875 8.553125,10.5 8.3125,10.5" id="Fill-11"></path>
                    <path d="M13.5625,0 L10.9375,0 C10.696875,0 10.5,0.196875 10.5,0.4375 L10.5,3.0625 C10.5,3.303125 10.696875,3.5 10.9375,3.5 L13.5625,3.5 C13.803125,3.5 14,3.303125 14,3.0625 L14,0.4375 C14,0.196875 13.803125,0 13.5625,0" id="Fill-13"></path>
                    <path d="M13.5625,5.25 L10.9375,5.25 C10.696875,5.25 10.5,5.446875 10.5,5.6875 L10.5,8.3125 C10.5,8.553125 10.696875,8.75 10.9375,8.75 L13.5625,8.75 C13.803125,8.75 14,8.553125 14,8.3125 L14,5.6875 C14,5.446875 13.803125,5.25 13.5625,5.25" id="Fill-15"></path>
                    <path d="M13.5625,10.5 L10.9375,10.5 C10.696875,10.5 10.5,10.696875 10.5,10.9375 L10.5,13.5625 C10.5,13.803125 10.696875,14 10.9375,14 L13.5625,14 C13.803125,14 14,13.803125 14,13.5625 L14,10.9375 C14,10.696875 13.803125,10.5 13.5625,10.5" id="Fill-17"></path>
                </g>
            </g>
        </g>
    </g>
</svg>