<?xml version="1.0" encoding="UTF-8" standalone="no"?>
<svg width="12px" height="16px" viewBox="0 0 12 16" version="1.1" xmlns="http://www.w3.org/2000/svg" xmlns:xlink="http://www.w3.org/1999/xlink">
    <!-- Generator: Sketch 3.8.3 (29802) - http://www.bohemiancoding.com/sketch -->
    <title>Group 6</title>
    <desc>Created with Sketch.</desc>
    <defs></defs>
    <g id="Symbols" stroke="none" stroke-width="1" fill="none" fill-rule="evenodd">
        <g id="Group-6" fill="#B8B8B8">
            <g id="Group-3">
                <path d="M3,9.5781 L3,8.4431 C1.81,7.7501 1,6.4741 1,5.0001 C1,2.7941 2.795,1.0001 5,1.0001 C7.205,1.0001 9,2.7941 9,5.0001 C9,5.7331 8.791,6.4121 8.443,7.0001 L9.568,7.0001 C9.84,6.3881 10,5.7151 10,5.0001 C10,2.2381 7.762,0.0001 5,0.0001 C2.238,0.0001 0,2.2381 0,5.0001 C0,7.0491 1.236,8.8061 3,9.5781" id="Fill-1"></path>
                <path d="M11,10 C10.451,10 10,10.45 10,11 L10,10.051 C10,9.473 9.527,9 8.949,9 C8.527,9 8.168,9.255 8,9.615 L8,9.051 C8,8.473 7.527,8 6.949,8 C6.527,8 6.168,8.255 6,8.615 L6,5 C6,4.45 5.551,4 5,4 C4.451,4 4,4.45 4,5 L4,13.536 L2.584,11.834 C2.242,11.401 1.611,11.327 1.18,11.668 C0.748,12.009 0.674,12.641 1.014,13.072 L2.777,15.215 C3.119,15.646 3.848,16 4.398,16 L11,16 C11.551,16 12,15.55 12,15 L12,11 C12,10.45 11.551,10 11,10" id="Fill-3"></path>
            </g>
        </g>
    </g>
</svg>