<?xml version="1.0" encoding="UTF-8" standalone="no"?>
<svg width="16px" height="13px" viewBox="0 0 16 13" version="1.1" xmlns="http://www.w3.org/2000/svg" xmlns:xlink="http://www.w3.org/1999/xlink">
    <!-- Generator: Sketch 3.8.3 (29802) - http://www.bohemiancoding.com/sketch -->
    <title>Group 3</title>
    <desc>Created with Sketch.</desc>
    <defs>
        <polygon id="path-1" points="0 13 16 13 16 0 0 0"></polygon>
    </defs>
    <g id="Symbols" stroke="none" stroke-width="1" fill="none" fill-rule="evenodd">
        <g id="Group-3">
            <path d="M8.2461,7.7461 C8.7971,7.7461 9.2441,7.2991 9.2441,6.7461 C9.2441,6.1931 8.7971,5.7461 8.2461,5.7461 C7.6931,5.7461 7.2441,6.1931 7.2441,6.7461 C7.2441,7.2991 7.6931,7.7461 8.2461,7.7461 L8.2461,7.7461 Z" id="Fill-1" fill="#979797"></path>
            <path d="M10.3867,8.7012 L9.4997,7.7932 C9.4997,7.7932 8.2717,8.2502 7.8667,8.9502 C7.2207,8.5992 6.8707,8.9502 6.8707,8.9502 L5.9997,10.0002 L12.9997,10.0002 L12.9997,7.4612 L11.8927,5.4502 L10.3867,8.7012 Z" id="Fill-3" fill="#979797"></path>
            <mask id="mask-2" fill="white">
                <use xlink:href="#path-1"></use>
            </mask>
            <g id="Clip-6"></g>
            <path d="M5,11 L14,11 L14,5 L5,5 L5,11 Z M3,7 L2,7 L2,2 L12,2 L12,3 L3,3 L3,7 Z M14,3 L14,0 L0,0 L0,9 L3,9 L3,13 L16,13 L16,3 L14,3 Z" id="Fill-5" fill="#979797" mask="url(#mask-2)"></path>
        </g>
    </g>
</svg>