<?xml version="1.0" encoding="UTF-8" standalone="no"?>
<svg width="16px" height="12px" viewBox="0 0 16 12" version="1.1" xmlns="http://www.w3.org/2000/svg" xmlns:xlink="http://www.w3.org/1999/xlink">
    <!-- Generator: Sketch 3.8.3 (29802) - http://www.bohemiancoding.com/sketch -->
    <title>icon Metrics</title>
    <desc>Created with Sketch.</desc>
    <defs>
        <polygon id="path-1" points="16 12.9352 16 0.936 0.0004 0.936 0.0004 12.9352 16 12.9352"></polygon>
    </defs>
    <g id="Symbols" stroke="none" stroke-width="1" fill="none" fill-rule="evenodd">
        <g id="ICON-Metrics-MAIN" transform="translate(0.000000, -1.000000)">
            <g id="icon-Metrics">
                <g id="Group-3" transform="translate(0.000000, 0.064500)">
                    <mask id="mask-2" fill="white">
                        <use xlink:href="#path-1"></use>
                    </mask>
                    <g id="Clip-2"></g>
                    <path d="M14.4834,10.2802 C14.2974,10.4062 14.1004,10.4672 13.8994,10.4672 C13.5714,10.4672 13.2724,10.3122 13.0834,10.0452 C12.9284,9.8342 12.8664,9.5702 12.9104,9.3062 C12.9544,9.0422 13.1014,8.8102 13.3244,8.6562 C13.7664,8.3462 14.4164,8.4622 14.7204,8.9002 C14.8684,9.1022 14.9284,9.3612 14.8874,9.6212 C14.8464,9.8852 14.6984,10.1252 14.4834,10.2802 M12.0834,7.0452 C11.9284,6.8342 11.8664,6.5702 11.9104,6.3062 C11.9544,6.0422 12.1014,5.8102 12.3244,5.6562 C12.7664,5.3462 13.4164,5.4622 13.7204,5.9002 C13.8684,6.1022 13.9284,6.3612 13.8874,6.6212 C13.8464,6.8852 13.6984,7.1252 13.4834,7.2802 C13.2974,7.4062 13.1004,7.4672 12.8994,7.4672 C12.5714,7.4672 12.2724,7.3122 12.0834,7.0452 M11.0424,4.9312 L9.5034,9.6312 C9.1354,9.2092 8.6024,8.9352 8.0004,8.9352 C7.9094,8.9352 7.8224,8.9512 7.7354,8.9632 L10.0974,4.5302 C10.3564,4.0452 10.7454,3.7222 10.9604,3.8142 C11.1754,3.9062 11.2124,4.4082 11.0424,4.9312 M8.0004,12.4352 C7.1724,12.4352 6.5004,11.7632 6.5004,10.9352 C6.5004,10.1092 7.1724,9.4352 8.0004,9.4352 C8.8274,9.4352 9.5004,10.1092 9.5004,10.9352 C9.5004,11.7632 8.8274,12.4352 8.0004,12.4352 M5.6374,5.5252 C5.5034,5.6022 5.3374,5.6462 5.1704,5.6462 C4.8084,5.6462 4.4614,5.4432 4.2844,5.1312 C4.0204,4.6252 4.2034,4.0332 4.6904,3.7662 C5.1704,3.5072 5.8094,3.7072 6.0474,4.1812 C6.3004,4.6692 6.1234,5.2622 5.6374,5.5252 M3.8684,7.1192 C3.6634,7.4062 3.3584,7.5662 3.0404,7.5662 C2.8314,7.5662 2.6254,7.4992 2.4624,7.3772 C2.2624,7.2482 2.1104,7.0212 2.0574,6.7552 C2.0044,6.4932 2.0594,6.2192 2.2064,6.0042 C2.5144,5.5622 3.1534,5.4372 3.5924,5.7272 C4.0514,6.0602 4.1644,6.6652 3.8684,7.1192 M2.0404,10.2462 L1.9794,10.2462 C1.6634,10.2142 1.4244,10.0832 1.2564,9.8742 C1.0894,9.6652 1.0134,9.4042 1.0434,9.1402 C1.0964,8.6352 1.5234,8.2522 2.0344,8.2522 L2.1434,8.2582 C2.4094,8.2872 2.6474,8.4172 2.8134,8.6252 C2.9814,8.8332 3.0564,9.0962 3.0264,9.3612 C2.9674,9.8752 2.5534,10.2462 2.0404,10.2462 M7.9404,2.9352 C8.4914,2.9352 8.9404,3.3812 8.9404,3.9262 C8.9494,4.1792 8.8504,4.4352 8.6614,4.6322 C8.4734,4.8252 8.2144,4.9352 7.9504,4.9352 L7.9404,4.9352 C7.3994,4.9352 6.9604,4.5092 6.9404,3.9642 C6.9404,3.3882 7.3884,2.9352 7.9404,2.9352 M8.0004,0.9352 C3.5814,0.9352 0.0004,4.5172 0.0004,8.9352 L0.0004,12.9352 L16.0004,12.9352 L16.0004,8.9352 C16.0004,4.5172 12.4194,0.9352 8.0004,0.9352" id="Fill-1" fill="#0B9AD7" mask="url(#mask-2)"></path>
                </g>
            </g>
        </g>
    </g>
</svg>