<?xml version="1.0" encoding="UTF-8" standalone="no"?>
<svg width="11px" height="16px" viewBox="0 0 11 16" version="1.1" xmlns="http://www.w3.org/2000/svg" xmlns:xlink="http://www.w3.org/1999/xlink">
    <!-- Generator: Sketch 3.8.3 (29802) - http://www.bohemiancoding.com/sketch -->
    <title>Group</title>
    <desc>Created with Sketch.</desc>
    <defs></defs>
    <g id="Symbols" stroke="none" stroke-width="1" fill="none" fill-rule="evenodd">
        <g id="ICON-Apps-Secondary" fill="#E1E0DA">
            <g id="Group">
                <path d="M10,14 C10,14.552 9.551,15 9,15 L2,15 C1.449,15 1,14.552 1,14 L1,2 C1,1.448 1.449,1 2,1 L9,1 C9.551,1 10,1.448 10,2 L10,14 Z M9,0 L2,0 C0.9,0 0,0.9 0,2 L0,14 C0,15.1 0.9,16 2,16 L9,16 C10.1,16 11,15.1 11,14 L11,2 C11,0.9 10.1,0 9,0 L9,0 Z" id="Page-1"></path>
                <polygon id="Fill-1" points="2 12 9 12 9 2 2 2"></polygon>
                <polygon id="Fill-2" points="5 14 6 14 6 13 5 13"></polygon>
            </g>
        </g>
    </g>
</svg>