<?xml version="1.0" encoding="UTF-8" standalone="no"?>
<svg width="10px" height="20px" viewBox="0 0 10 20" version="1.1" xmlns="http://www.w3.org/2000/svg" xmlns:xlink="http://www.w3.org/1999/xlink">
    <!-- Generator: Sketch 3.8.3 (29802) - http://www.bohemiancoding.com/sketch -->
    <title>Combined Shape</title>
    <desc>Created with Sketch.</desc>
    <defs></defs>
    <g id="Symbols" stroke="none" stroke-width="1" fill="none" fill-rule="evenodd">
        <path d="M2,14 L1,14 L1,13 L-1,13 L-1,12 L-2,12 L-2,11 L-5,11 L-5,9 L-2,9 L-2,8 L-1,8 L-1,7 L1,7 L1,6 L2,6 L2,5 L11,5 L11,7 L15,7 L15,9 L11,9 L11,11 L15,11 L15,13 L11,13 L11,15 L2,15 L2,14 Z" id="Combined-Shape" fill="#6C9E41" transform="translate(5.000000, 10.000000) rotate(-90.000000) translate(-5.000000, -10.000000) "></path>
    </g>
</svg>