<?xml version="1.0" encoding="UTF-8" standalone="no"?>
<svg width="17px" height="17px" viewBox="0 0 17 17" version="1.1" xmlns="http://www.w3.org/2000/svg" xmlns:xlink="http://www.w3.org/1999/xlink">
    <!-- Generator: Sketch 3.8.3 (29802) - http://www.bohemiancoding.com/sketch -->
    <title>Group</title>
    <desc>Created with Sketch.</desc>
    <defs></defs>
    <g id="Symbols" stroke="none" stroke-width="1" fill="none" fill-rule="evenodd">
        <g id="Add-Mobile" transform="translate(-1.000000, -1.000000)" fill="#6C9E41">
            <g id="Group" transform="translate(1.000000, 1.000000)">
                <path d="M8.5,16.5952381 C12.9708765,16.5952381 16.5952381,12.9708765 16.5952381,8.5 C16.5952381,4.02912345 12.9708765,0.404761905 8.5,0.404761905 C4.02912345,0.404761905 0.404761905,4.02912345 0.404761905,8.5 C0.404761905,12.9708765 4.02912345,16.5952381 8.5,16.5952381 L8.5,16.5952381 Z M8.5,15.7857143 C4.47621111,15.7857143 1.21428571,12.5237889 1.21428571,8.5 C1.21428571,4.47621111 4.47621111,1.21428571 8.5,1.21428571 C12.5237889,1.21428571 15.7857143,4.47621111 15.7857143,8.5 C15.7857143,12.5237889 12.5237889,15.7857143 8.5,15.7857143 L8.5,15.7857143 Z" id="Oval-1"></path>
                <polygon id="Line" points="8.0952381 2.83333333 8.0952381 14.1955411 8.0952381 14.600303 8.9047619 14.600303 8.9047619 14.1955411 8.9047619 2.83333333 8.9047619 2.42857143 8.0952381 2.42857143"></polygon>
                <polygon id="Line-Copy" points="13.3571429 8.0952381 3.64285714 8.0952381 3.23809524 8.0952381 3.23809524 8.9047619 3.64285714 8.9047619 13.3571429 8.9047619 13.7619048 8.9047619 13.7619048 8.0952381"></polygon>
            </g>
        </g>
    </g>
</svg>