<?xml version="1.0" encoding="UTF-8" standalone="no"?>
<svg width="15px" height="18px" viewBox="0 0 15 18" version="1.1" xmlns="http://www.w3.org/2000/svg" xmlns:xlink="http://www.w3.org/1999/xlink">
    <!-- Generator: Sketch 3.8.3 (29802) - http://www.bohemiancoding.com/sketch -->
    <title>Group 5</title>
    <desc>Created with Sketch.</desc>
    <defs></defs>
    <g id="Symbols" stroke="none" stroke-width="1" fill="none" fill-rule="evenodd">
        <g id="Group-3" fill="#B8B8B8">
            <g id="Group-5">
                <path d="M12.1992,13 L12.1992,12.051 C12.1992,11.473 11.7262,11 11.1482,11 C10.7262,11 10.3672,11.255 10.1992,11.615 L10.1992,11.051 C10.1992,10.473 9.7262,10 9.1482,10 C8.7262,10 8.3672,10.255 8.1992,10.615 L8.1992,7 C8.1992,6.45 7.7502,6 7.1992,6 C6.6502,6 6.1992,6.45 6.1992,7 L6.1992,15.536 L4.7832,13.834 C4.4412,13.401 3.8102,13.327 3.3792,13.668 C2.9472,14.009 2.8732,14.641 3.2132,15.072 L4.9762,17.215 C5.3182,17.646 6.0472,18 6.5972,18 L13.1992,18 C13.7502,18 14.1992,17.55 14.1992,17 L14.1992,13 C14.1992,12.45 13.7502,12 13.1992,12 C12.6502,12 12.1992,12.45 12.1992,13 Z" id="Fill-1"></path>
                <rect id="Rectangle-295" x="0" y="8" width="4" height="1"></rect>
                <rect id="Rectangle-295-Copy-4" transform="translate(7.500000, 2.000000) rotate(-270.000000) translate(-7.500000, -2.000000) " x="5.5" y="1.5" width="4" height="1"></rect>
                <rect id="Rectangle-295-Copy-3" transform="translate(3.000000, 4.500000) rotate(45.000000) translate(-3.000000, -4.500000) " x="1" y="4" width="4" height="1"></rect>
                <polygon id="Rectangle-295-Copy" points="11 8 15 8 15 9 12.9371533 9 11 9"></polygon>
                <rect id="Rectangle-295-Copy-2" transform="translate(12.000000, 4.500000) rotate(-45.000000) translate(-12.000000, -4.500000) " x="10" y="4" width="4" height="1"></rect>
            </g>
        </g>
    </g>
</svg>