<?xml version="1.0" encoding="UTF-8" standalone="no"?>
<svg width="14px" height="16px" viewBox="0 0 14 16" version="1.1" xmlns="http://www.w3.org/2000/svg" xmlns:xlink="http://www.w3.org/1999/xlink">
    <!-- Generator: Sketch 3.8.3 (29802) - http://www.bohemiancoding.com/sketch -->
    <title>Group</title>
    <desc>Created with Sketch.</desc>
    <defs></defs>
    <g id="Symbols" stroke="none" stroke-width="1" fill="none" fill-rule="evenodd">
        <g id="Security-Secondary" fill="#C3C0B4">
            <g id="Group">
                <path d="M12,7 C12,9.256 10.447,12.152 7,13.816 C3.553,12.152 2,9.256 2,7 L2,4.511 C2.618,4.81 3.291,5 4,5 C5.207,5 6.213,4.564 7,3.983 C7.787,4.564 8.793,5 10,5 C10.709,5 11.382,4.81 12,4.511 L12,7 Z M10,3 C8,3 7,1 7,1 C7,1 6,3 4,3 C2,3 0,0 0,0 L0,7 C0,10 2,14 7,16 C12,14 14,10 14,7 L14,0 C14,0 12,3 10,3 L10,3 Z" id="Fill-1"></path>
                <path d="M7,5.1787 L7,12.6927 C9.759,11.1907 11,8.7877 11,6.9997 L11,5.9007 C10.666,5.9667 10.332,5.9997 10,5.9997 C8.952,5.9997 7.928,5.7177 7,5.1787" id="Fill-3"></path>
            </g>
        </g>
    </g>
</svg>