<?xml version="1.0" encoding="UTF-8" standalone="no"?>
<svg width="17px" height="17px" viewBox="0 0 17 17" version="1.1" xmlns="http://www.w3.org/2000/svg" xmlns:xlink="http://www.w3.org/1999/xlink">
    <!-- Generator: Sketch 3.8.3 (29802) - http://www.bohemiancoding.com/sketch -->
    <title>Group</title>
    <desc>Created with Sketch.</desc>
    <defs></defs>
    <g id="Symbols" stroke="none" stroke-width="1" fill="none" fill-rule="evenodd">
        <g id="Delete-Mobile" transform="translate(-1.000000, -1.000000)">
            <g id="Group" transform="translate(9.500000, 9.500000) rotate(-315.000000) translate(-9.500000, -9.500000) translate(1.000000, 1.000000)">
                <path d="M2.77580225,14.2241978 C5.93718937,17.3855849 11.0628106,17.3855849 14.2241978,14.2241978 C17.3855849,11.0628106 17.3855849,5.93718937 14.2241978,2.77580225 C11.0628106,-0.385584876 5.93718937,-0.385584876 2.77580225,2.77580225 C-0.385584876,5.93718937 -0.385584876,11.0628106 2.77580225,14.2241978 L2.77580225,14.2241978 Z M3.34822202,13.651778 C0.502973612,10.8065296 0.502973612,6.19347043 3.34822202,3.34822202 C6.19347043,0.502973612 10.8065296,0.502973612 13.651778,3.34822202 C16.4970264,6.19347043 16.4970264,10.8065296 13.651778,13.651778 C10.8065296,16.4970264 6.19347043,16.4970264 3.34822202,13.651778 L3.34822202,13.651778 Z" id="Oval-1" fill="#D55329"></path>
                <polygon id="Line" fill="#D55329" points="8.0952381 2.83333333 8.0952381 14.1955411 8.0952381 14.600303 8.9047619 14.600303 8.9047619 14.1955411 8.9047619 2.83333333 8.9047619 2.42857143 8.0952381 2.42857143"></polygon>
                <polygon id="Line-Copy" fill="#D34213" points="13.3571429 8.0952381 3.64285714 8.0952381 3.23809524 8.0952381 3.23809524 8.9047619 3.64285714 8.9047619 13.3571429 8.9047619 13.7619048 8.9047619 13.7619048 8.0952381"></polygon>
            </g>
        </g>
    </g>
</svg>